<svg width="38" height="39" viewBox="0 0 38 39" fill="none" xmlns="http://www.w3.org/2000/svg">
<g opacity="0.88" clip-path="url(#clip0_53_109)">
<g filter="url(#filter0_d_53_109)">
<path d="M19.6476 21.4436C20.3693 19.7706 21.646 18.3978 23.2622 17.5568C24.8785 16.7157 26.7353 16.4579 28.5196 16.8268C30.3038 17.1957 31.9062 18.1688 33.0564 19.5818C34.2066 20.9948 34.8342 22.7614 34.8333 24.5833C34.8333 30.7045 28.5 35.6667 20.5833 35.6667C14.1281 35.6667 7.67442 34.3683 4.16258 31.7685C3.48808 31.2682 3.1635 30.4512 3.18092 29.612C3.3535 20.9781 4.15942 4 15.8333 4C17.0931 4 18.3013 4.50045 19.1921 5.39124C20.0829 6.28204 20.5833 7.49022 20.5833 8.75C20.5833 9.58985 20.2497 10.3953 19.6558 10.9892C19.062 11.583 18.2565 11.9167 17.4167 11.9167C15.6671 11.9167 14.82 11.2137 14.25 10.3333" stroke="white" stroke-width="3.33333" stroke-linecap="round" stroke-linejoin="round" shape-rendering="crispEdges"/>
</g>
<g filter="url(#filter1_d_53_109)">
<path d="M23.75 23C22.7944 22.2829 21.689 21.7914 20.5165 21.5623C19.344 21.3332 18.1348 21.3725 16.9796 21.6771C15.8244 21.9818 14.7531 22.5439 13.8461 23.3214C12.939 24.0989 12.2197 25.0716 11.742 26.1667" stroke="white" stroke-width="3.33333" stroke-linecap="round" stroke-linejoin="round" shape-rendering="crispEdges"/>
</g>
<g filter="url(#filter2_d_53_109)">
<path d="M15.7763 11.6396C12.6968 13.4636 15.0417 21.4167 12.6667 24.5834" stroke="white" stroke-width="3.33333" stroke-linecap="round" stroke-linejoin="round" shape-rendering="crispEdges"/>
</g>
</g>
<defs>
<filter id="filter0_d_53_109" x="-2.48639" y="2.33337" width="42.9864" height="43" filterUnits="userSpaceOnUse" color-interpolation-filters="sRGB">
<feFlood flood-opacity="0" result="BackgroundImageFix"/>
<feColorMatrix in="SourceAlpha" type="matrix" values="0 0 0 0 0 0 0 0 0 0 0 0 0 0 0 0 0 0 127 0" result="hardAlpha"/>
<feOffset dy="4"/>
<feGaussianBlur stdDeviation="2"/>
<feComposite in2="hardAlpha" operator="out"/>
<feColorMatrix type="matrix" values="0 0 0 0 0 0 0 0 0 0 0 0 0 0 0 0 0 0 0.25 0"/>
<feBlend mode="normal" in2="BackgroundImageFix" result="effect1_dropShadow_53_109"/>
<feBlend mode="normal" in="SourceGraphic" in2="effect1_dropShadow_53_109" result="shape"/>
</filter>
<filter id="filter1_d_53_109" x="6.07492" y="19.7488" width="23.3418" height="16.085" filterUnits="userSpaceOnUse" color-interpolation-filters="sRGB">
<feFlood flood-opacity="0" result="BackgroundImageFix"/>
<feColorMatrix in="SourceAlpha" type="matrix" values="0 0 0 0 0 0 0 0 0 0 0 0 0 0 0 0 0 0 127 0" result="hardAlpha"/>
<feOffset dy="4"/>
<feGaussianBlur stdDeviation="2"/>
<feComposite in2="hardAlpha" operator="out"/>
<feColorMatrix type="matrix" values="0 0 0 0 0 0 0 0 0 0 0 0 0 0 0 0 0 0 0.25 0"/>
<feBlend mode="normal" in2="BackgroundImageFix" result="effect1_dropShadow_53_109"/>
<feBlend mode="normal" in="SourceGraphic" in2="effect1_dropShadow_53_109" result="shape"/>
</filter>
<filter id="filter2_d_53_109" x="6.99991" y="9.97278" width="14.4434" height="24.2773" filterUnits="userSpaceOnUse" color-interpolation-filters="sRGB">
<feFlood flood-opacity="0" result="BackgroundImageFix"/>
<feColorMatrix in="SourceAlpha" type="matrix" values="0 0 0 0 0 0 0 0 0 0 0 0 0 0 0 0 0 0 127 0" result="hardAlpha"/>
<feOffset dy="4"/>
<feGaussianBlur stdDeviation="2"/>
<feComposite in2="hardAlpha" operator="out"/>
<feColorMatrix type="matrix" values="0 0 0 0 0 0 0 0 0 0 0 0 0 0 0 0 0 0 0.25 0"/>
<feBlend mode="normal" in2="BackgroundImageFix" result="effect1_dropShadow_53_109"/>
<feBlend mode="normal" in="SourceGraphic" in2="effect1_dropShadow_53_109" result="shape"/>
</filter>
<clipPath id="clip0_53_109">
<rect width="38" height="38" fill="white" transform="translate(0 0.833374)"/>
</clipPath>
</defs>
</svg>
