<svg width="38" height="39" viewBox="0 0 38 39" fill="none" xmlns="http://www.w3.org/2000/svg">
<g opacity="0.88" clip-path="url(#clip0_53_163)">
<g filter="url(#filter0_d_53_163)">
<path d="M22.9251 30.8421L21.3877 32.3289C21.0926 32.6677 20.7289 32.9399 20.3206 33.1273C19.9123 33.3148 19.4687 33.4132 19.0195 33.416C18.5702 33.4189 18.1254 33.3261 17.7148 33.1438C17.3041 32.9616 16.937 32.694 16.6377 32.3589L7.91667 23.9166C5.54167 21.5416 3.16667 18.8499 3.16667 15.2083C3.1667 13.4463 3.70119 11.7259 4.69955 10.2741C5.6979 8.82229 7.11316 7.70748 8.75839 7.07691C10.4036 6.44633 12.2014 6.32964 13.9144 6.74226C15.6273 7.15488 17.1748 8.07739 18.3524 9.38794C18.4354 9.47663 18.5356 9.54734 18.647 9.59568C18.7584 9.64401 18.8786 9.66896 19 9.66896C19.1214 9.66896 19.2416 9.64401 19.353 9.59568C19.4644 9.54734 19.5646 9.47663 19.6476 9.38794C20.8215 8.06887 22.3694 7.13861 24.0851 6.72098C25.8008 6.30335 27.603 6.41816 29.2519 7.05012C30.9007 7.68209 32.318 8.80124 33.3151 10.2586C34.3122 11.716 34.8418 13.4425 34.8333 15.2083C34.8328 16.0073 34.716 16.802 34.4866 17.5674" stroke="white" stroke-width="3.33333" stroke-linecap="round" stroke-linejoin="round" shape-rendering="crispEdges"/>
</g>
<g filter="url(#filter1_d_53_163)">
<path d="M23.75 23.9166H33.25" stroke="white" stroke-width="3.33333" stroke-linecap="round" stroke-linejoin="round" shape-rendering="crispEdges"/>
</g>
<g filter="url(#filter2_d_53_163)">
<path d="M28.5 19.1666V28.6666" stroke="white" stroke-width="3.33333" stroke-linecap="round" stroke-linejoin="round" shape-rendering="crispEdges"/>
</g>
</g>
<defs>
<filter id="filter0_d_53_163" x="-2.5" y="4.80774" width="43.0001" height="38.275" filterUnits="userSpaceOnUse" color-interpolation-filters="sRGB">
<feFlood flood-opacity="0" result="BackgroundImageFix"/>
<feColorMatrix in="SourceAlpha" type="matrix" values="0 0 0 0 0 0 0 0 0 0 0 0 0 0 0 0 0 0 127 0" result="hardAlpha"/>
<feOffset dy="4"/>
<feGaussianBlur stdDeviation="2"/>
<feComposite in2="hardAlpha" operator="out"/>
<feColorMatrix type="matrix" values="0 0 0 0 0 0 0 0 0 0 0 0 0 0 0 0 0 0 0.25 0"/>
<feBlend mode="normal" in2="BackgroundImageFix" result="effect1_dropShadow_53_163"/>
<feBlend mode="normal" in="SourceGraphic" in2="effect1_dropShadow_53_163" result="shape"/>
</filter>
<filter id="filter1_d_53_163" x="18.0833" y="22.25" width="20.8333" height="11.3333" filterUnits="userSpaceOnUse" color-interpolation-filters="sRGB">
<feFlood flood-opacity="0" result="BackgroundImageFix"/>
<feColorMatrix in="SourceAlpha" type="matrix" values="0 0 0 0 0 0 0 0 0 0 0 0 0 0 0 0 0 0 127 0" result="hardAlpha"/>
<feOffset dy="4"/>
<feGaussianBlur stdDeviation="2"/>
<feComposite in2="hardAlpha" operator="out"/>
<feColorMatrix type="matrix" values="0 0 0 0 0 0 0 0 0 0 0 0 0 0 0 0 0 0 0.25 0"/>
<feBlend mode="normal" in2="BackgroundImageFix" result="effect1_dropShadow_53_163"/>
<feBlend mode="normal" in="SourceGraphic" in2="effect1_dropShadow_53_163" result="shape"/>
</filter>
<filter id="filter2_d_53_163" x="22.8333" y="17.5" width="11.3333" height="20.8333" filterUnits="userSpaceOnUse" color-interpolation-filters="sRGB">
<feFlood flood-opacity="0" result="BackgroundImageFix"/>
<feColorMatrix in="SourceAlpha" type="matrix" values="0 0 0 0 0 0 0 0 0 0 0 0 0 0 0 0 0 0 127 0" result="hardAlpha"/>
<feOffset dy="4"/>
<feGaussianBlur stdDeviation="2"/>
<feComposite in2="hardAlpha" operator="out"/>
<feColorMatrix type="matrix" values="0 0 0 0 0 0 0 0 0 0 0 0 0 0 0 0 0 0 0.25 0"/>
<feBlend mode="normal" in2="BackgroundImageFix" result="effect1_dropShadow_53_163"/>
<feBlend mode="normal" in="SourceGraphic" in2="effect1_dropShadow_53_163" result="shape"/>
</filter>
<clipPath id="clip0_53_163">
<rect width="38" height="38" fill="white" transform="translate(0 0.166626)"/>
</clipPath>
</defs>
</svg>
