<svg width="42" height="43" viewBox="0 0 42 43" fill="none" xmlns="http://www.w3.org/2000/svg">
<g filter="url(#filter0_d_110_251)">
<path d="M20.159 1.5V4.86824M26.8954 18.3412C26.8954 16.5546 26.1856 14.8411 24.9223 13.5778C23.659 12.3145 21.9456 11.6047 20.159 11.6047M31.9477 6.55236L29.8324 8.66762M33.6318 18.3412H37M24.9368 25.7261C24.5219 27.4762 23.6474 29.0838 22.4037 30.383C21.1599 31.6822 19.592 32.6259 17.8617 33.1166C16.1313 33.6073 14.3014 33.6273 12.5608 33.1746C10.8202 32.7218 9.23193 31.8126 7.96007 30.5409C6.68821 29.2692 5.77883 27.6811 5.3258 25.9405C4.87277 24.1999 4.89253 22.37 5.38302 20.6396C5.87351 18.9092 6.81697 17.341 8.11598 16.0971C9.41499 14.8532 11.0225 13.9785 12.7725 13.5634C13.8234 13.3158 14.4061 14.6749 13.9766 15.6651C13.4405 16.9045 13.2893 18.2763 13.5424 19.6027C13.7956 20.9291 14.4416 22.1487 15.3965 23.1035C16.3514 24.0582 17.5712 24.7039 18.8976 24.9569C20.224 25.2098 21.5958 25.0583 22.835 24.5219C23.8269 24.0925 25.186 24.6735 24.9368 25.7261Z" stroke="white" stroke-width="2" stroke-linecap="round" stroke-linejoin="round" shape-rendering="crispEdges"/>
</g>
<defs>
<filter id="filter0_d_110_251" x="0" y="0.5" width="42" height="42" filterUnits="userSpaceOnUse" color-interpolation-filters="sRGB">
<feFlood flood-opacity="0" result="BackgroundImageFix"/>
<feColorMatrix in="SourceAlpha" type="matrix" values="0 0 0 0 0 0 0 0 0 0 0 0 0 0 0 0 0 0 127 0" result="hardAlpha"/>
<feOffset dy="4"/>
<feGaussianBlur stdDeviation="2"/>
<feComposite in2="hardAlpha" operator="out"/>
<feColorMatrix type="matrix" values="0 0 0 0 0 0 0 0 0 0 0 0 0 0 0 0 0 0 0.25 0"/>
<feBlend mode="normal" in2="BackgroundImageFix" result="effect1_dropShadow_110_251"/>
<feBlend mode="normal" in="SourceGraphic" in2="effect1_dropShadow_110_251" result="shape"/>
</filter>
</defs>
</svg>
