<svg width="227" height="52" viewBox="0 0 227 52" fill="none" xmlns="http://www.w3.org/2000/svg">
<path d="M130.427 17.9233H121.094V11.6718C121.094 9.85395 120.991 8.72335 120.784 8.27998C120.592 7.82183 120.156 7.59275 119.476 7.59275C118.707 7.59275 118.22 7.86616 118.013 8.41299C117.806 8.95981 117.702 10.1421 117.702 11.96V28.6307C117.702 30.3747 117.806 31.5127 118.013 32.0447C118.22 32.5768 118.685 32.8428 119.409 32.8428C120.104 32.8428 120.555 32.5768 120.762 32.0447C120.983 31.5127 121.094 30.2638 121.094 28.2982V23.798H130.427V25.1946C130.427 28.9042 130.161 31.5348 129.629 33.0866C129.112 34.6384 127.952 35.9981 126.149 37.1657C124.36 38.3332 122.151 38.917 119.52 38.917C116.786 38.917 114.532 38.4219 112.759 37.4317C110.985 36.4415 109.81 35.0744 109.234 33.3305C108.658 31.5718 108.369 28.9337 108.369 25.4163V14.9306C108.369 12.3442 108.458 10.4082 108.635 9.12238C108.813 7.82183 109.337 6.57299 110.209 5.37589C111.096 4.17879 112.315 3.24032 113.867 2.56048C115.434 1.86586 117.23 1.51855 119.254 1.51855C122.003 1.51855 124.272 2.0506 126.06 3.11469C127.848 4.17879 129.023 5.5089 129.585 7.10504C130.146 8.6864 130.427 11.1545 130.427 14.5094V17.9233Z" fill="white"/>
<path d="M91.3935 2.27228V38.1632H83.2133L78.3583 21.8472V38.1632H70.555V2.27228H78.3583L83.5901 18.4332V2.27228H91.3935Z" fill="white"/>
<path d="M64.3282 23.2881C64.3282 26.8942 64.2396 29.451 64.0622 30.9585C63.8996 32.4511 63.3676 33.8182 62.4661 35.0596C61.5793 36.3011 60.3748 37.2543 58.8526 37.9194C57.3303 38.5844 55.5568 38.917 53.5321 38.917C51.6108 38.917 49.8816 38.6066 48.3446 37.9859C46.8224 37.3504 45.5957 36.4045 44.6646 35.1483C43.7335 33.8921 43.1793 32.525 43.002 31.0471C42.8246 29.5692 42.7359 26.9829 42.7359 23.2881V17.1474C42.7359 13.5413 42.8172 10.9919 42.9798 9.49925C43.1571 7.99179 43.6892 6.61733 44.5759 5.37589C45.4775 4.13445 46.6893 3.1812 48.2116 2.51614C49.7338 1.85108 51.5073 1.51855 53.5321 1.51855C55.4534 1.51855 57.1751 1.8363 58.6974 2.4718C60.2344 3.09253 61.4685 4.031 62.3996 5.28722C63.3306 6.54344 63.8849 7.9105 64.0622 9.38841C64.2396 10.8663 64.3282 13.4526 64.3282 17.1474V23.2881ZM54.9952 11.4944C54.9952 9.82439 54.8991 8.7603 54.707 8.30215C54.5297 7.82922 54.1528 7.59275 53.5764 7.59275C53.0887 7.59275 52.7118 7.78488 52.4458 8.16913C52.1946 8.53861 52.0689 9.64704 52.0689 11.4944V28.2539C52.0689 30.3377 52.1502 31.6235 52.3128 32.1112C52.4902 32.5989 52.8892 32.8428 53.5099 32.8428C54.1454 32.8428 54.5518 32.562 54.7292 32.0004C54.9065 31.4388 54.9952 30.1013 54.9952 27.9879V11.4944Z" fill="white"/>
<path d="M15.8036 2.27228H22.4098C26.814 2.27228 29.792 2.44224 31.3438 2.78216C32.9104 3.12207 34.1814 3.99404 35.1568 5.39805C36.147 6.78728 36.6421 9.01153 36.6421 12.0708C36.6421 14.864 36.2948 16.741 35.6002 17.7016C34.9056 18.6623 33.5385 19.2386 31.499 19.4308C33.3464 19.8889 34.5878 20.5023 35.2233 21.2708C35.8588 22.0393 36.2505 22.7487 36.3983 23.399C36.5608 24.0345 36.6421 25.8006 36.6421 28.6973V38.1632H27.9742V26.2365C27.9742 24.3153 27.819 23.1255 27.5086 22.6674C27.2131 22.2092 26.4224 21.9802 25.1366 21.9802V38.1632H15.8036V2.27228ZM25.1366 8.41298V16.3937C26.1859 16.3937 26.9175 16.2533 27.3313 15.9725C27.7599 15.6769 27.9742 14.7384 27.9742 13.1571V11.1841C27.9742 10.0461 27.7673 9.29972 27.3535 8.94503C26.9544 8.59033 26.2155 8.41298 25.1366 8.41298Z" fill="white"/>
<path d="M9.33301 2.27228V38.1632H0V2.27228H9.33301Z" fill="white"/>
<path fill-rule="evenodd" clip-rule="evenodd" d="M155.342 0C166.171 3.39646e-05 174.95 9.05188 174.95 20.2178C174.95 31.3837 166.171 40.4355 155.342 40.4355C152.563 40.4355 149.92 39.8393 147.524 38.7643C151.932 40.2403 156.984 40.0833 161.709 37.9415C170.072 34.1496 174.686 25.37 173.291 17.0283C172.042 25.6474 169.543 30.4175 160.289 34.6131C153.247 37.8059 145.802 37.3559 140.999 34.0029C137.897 30.5724 135.938 26.0277 135.75 21.0147C136.466 15.9311 139.786 10.9007 145.25 6.53388C154.709 -1.02541 166.556 3.76283 172.071 12.893C168.045 3.57313 156.944 -0.413177 147.231 3.99032C141.273 6.6915 137.218 11.9237 135.882 17.7257C137.073 7.73551 145.332 0 155.342 0ZM159.518 9.18883C159.218 9.18883 158.931 9.24019 158.663 9.33444C158.599 9.33177 158.533 9.33903 158.469 9.35766L154.315 10.5487C154.002 10.6383 153.814 10.9564 153.886 11.2733L154.603 14.4303C154.685 14.7921 155.067 14.9985 155.415 14.8686L157.523 14.0803C157.555 14.1081 157.587 14.1353 157.62 14.1617V19.6281C156.238 18.9362 154.773 18.7797 153.601 19.0987C152.447 18.0086 150.89 17.34 149.178 17.34C145.619 17.34 142.735 20.2246 142.735 23.7829C142.735 27.3413 145.619 30.226 149.178 30.226C149.817 30.226 150.434 30.1329 151.017 29.9597L160.958 28.9753C161.121 28.994 161.286 29.0041 161.453 29.0041C163.815 29.004 165.73 27.0892 165.73 24.7272C165.73 24.4027 165.693 24.0866 165.625 23.7828H165.73L162.304 12.0679C162.337 11.4998 162.2 10.9427 161.924 10.4627C161.998 10.6944 162.032 10.9302 162.021 11.1628C161.751 10.0307 160.733 9.18883 159.518 9.18883ZM153.421 10.0785C153.331 10.1932 153.257 10.3188 153.199 10.4519C153.263 10.3209 153.337 10.196 153.421 10.0785ZM156.555 8.6454C156.575 8.64158 156.595 8.63804 156.615 8.63499L156.565 8.61776L156.555 8.6454Z" fill="#A40000"/>
<path d="M180.268 2.27228H186.875C191.279 2.27228 194.257 2.44224 195.809 2.78216C197.375 3.12207 198.646 3.99404 199.622 5.39805C200.612 6.78728 201.107 9.01153 201.107 12.0708C201.107 14.864 200.76 16.741 200.065 17.7016C199.37 18.6623 198.003 19.2386 195.964 19.4308C197.811 19.8889 199.053 20.5023 199.688 21.2708C200.324 22.0393 200.715 22.7487 200.863 23.399C201.026 24.0345 201.107 25.8006 201.107 28.6973V38.1632H192.439V26.2365C192.439 24.3153 192.284 23.1255 191.973 22.6674C191.678 22.2092 190.887 21.9802 189.601 21.9802V38.1632H180.268V2.27228ZM189.601 8.41298V16.3937C190.651 16.3937 191.382 16.2533 191.796 15.9725C192.225 15.6769 192.439 14.7384 192.439 13.1571V11.1841C192.439 10.0461 192.232 9.29972 191.818 8.94503C191.419 8.59033 190.68 8.41298 189.601 8.41298Z" fill="white"/>
<path d="M206.427 38.2612C206.442 38.2767 206.457 38.2921 206.472 38.3073H206.427V38.2612Z" fill="white"/>
<path d="M217.592 38.3073H215.943V35.6348L217.592 30.5304V38.3073Z" fill="white"/>
<path d="M220.552 38.3073H219.744V32.8992L220.552 38.3073Z" fill="white"/>
<path d="M223.036 38.3073H222.267L223.036 32.7573V38.3073Z" fill="white"/>
<path d="M227 38.3073H225.188V34.6827L227 38.3073Z" fill="white"/>
<path d="M210.156 38.3073H210.1C210.112 38.2902 210.124 38.2729 210.136 38.2553L210.156 38.3073Z" fill="white"/>
<path d="M222.744 9.57687H216.004V15.9614H223.276L221.325 23.0554H216.004V29.7719H215.449C215.112 31.2021 214.871 32.4072 214.727 33.3872C214.682 32.7667 214.472 31.5615 214.098 29.7719H211.711L213.537 35.6348V38.3073H212.078V34.0991H208.929V35.457H209.472V36.5167C209.472 36.9325 209.435 37.2121 209.363 37.3556C209.295 37.4991 209.163 37.5709 208.967 37.5709C208.788 37.5709 208.669 37.5083 208.609 37.3832C208.549 37.2543 208.52 36.9894 208.52 36.5885V32.2997C208.52 31.8435 208.549 31.5602 208.609 31.4498C208.669 31.3394 208.782 31.2842 208.948 31.2842C209.139 31.2842 209.261 31.3486 209.312 31.4774C209.363 31.6062 209.389 31.9264 209.389 32.4378V33.2491H212.078V32.8628C212.078 32.1306 211.999 31.5731 211.842 31.1904C211.684 30.804 211.346 30.471 210.826 30.1913C210.306 29.9117 209.653 29.7719 208.865 29.7719C208.064 29.7719 207.41 29.9338 206.903 30.2576C206.718 30.3758 206.559 30.4985 206.427 30.6258V2.12817H227L222.744 9.57687Z" fill="white"/>
<path d="M221.416 34.0626L221.077 31.7242C220.973 30.9853 220.875 30.3421 220.782 29.7946H221.974L221.416 34.0626Z" fill="white"/>
<path d="M216.672 51.8724V42.6939H220.403C221.086 42.6939 221.668 42.8044 222.15 43.0253C222.632 43.2378 223.004 43.5395 223.267 43.9304C223.53 44.3129 223.661 44.7675 223.661 45.2945C223.661 45.8214 223.53 46.2803 223.267 46.6712C223.004 47.0622 222.632 47.3681 222.15 47.5891C221.668 47.8101 221.086 47.9205 220.403 47.9205H217.723V46.8242H220.364C220.994 46.8242 221.471 46.6925 221.795 46.429C222.128 46.1571 222.295 45.7831 222.295 45.3072C222.295 44.8313 222.133 44.4616 221.809 44.1981C221.485 43.9347 221.003 43.8029 220.364 43.8029H218.065V51.8724H216.672ZM222.137 51.8724L217.526 47.2449H219.221L224.134 51.8724H222.137Z" fill="white"/>
<path d="M199.734 51.8724V42.6939H201.126V51.8724H199.734ZM200.417 51.8724V50.7633H206.302V51.8724H200.417ZM200.417 47.6783V46.5693H205.829V47.6783H200.417ZM200.417 43.8029V42.6939H206.184V43.8029H200.417Z" fill="white"/>
<path d="M184.82 51.8724V43.8029H181.628V42.6939H189.405V43.8029H186.213V51.8724H184.82Z" fill="white"/>
<path d="M163.637 51.8724V42.6939H165.253L170.272 50.5466L169.956 50.6104V42.6939H171.296V51.8724H169.68L164.662 44.0197L164.977 43.9559V51.8724H163.637Z" fill="white"/>
<path d="M146.378 51.8724V42.6939H147.771V51.8724H146.378ZM147.061 51.8724V50.7633H152.947V51.8724H147.061ZM147.061 47.6783V46.5693H152.474V47.6783H147.061ZM147.061 43.8029V42.6939H152.829V43.8029H147.061Z" fill="white"/>
<path d="M131.834 52C131.177 52 130.568 51.8853 130.008 51.6558C129.447 51.4178 128.961 51.0907 128.55 50.6742C128.147 50.2493 127.831 49.7479 127.604 49.17C127.376 48.5921 127.262 47.9589 127.262 47.2705C127.262 46.5821 127.372 45.9532 127.591 45.3838C127.818 44.8059 128.134 44.3087 128.536 43.8923C128.948 43.4674 129.434 43.1402 129.995 42.9107C130.555 42.6813 131.164 42.5665 131.821 42.5665C132.556 42.5665 133.218 42.711 133.804 43C134.391 43.2804 134.868 43.6798 135.236 44.1983C135.613 44.7167 135.845 45.3201 135.932 46.0085H134.566C134.452 45.2861 134.15 44.7252 133.66 44.3257C133.178 43.9178 132.569 43.7138 131.834 43.7138C131.212 43.7138 130.66 43.8626 130.178 44.16C129.706 44.449 129.338 44.8612 129.075 45.3966C128.812 45.9235 128.681 46.5481 128.681 47.2705C128.681 47.9844 128.812 48.6133 129.075 49.1572C129.346 49.6926 129.719 50.1091 130.192 50.4065C130.665 50.704 131.212 50.8527 131.834 50.8527C132.569 50.8527 133.182 50.653 133.673 50.2535C134.172 49.8456 134.474 49.2804 134.579 48.5581H135.959C135.862 49.2549 135.626 49.8626 135.249 50.381C134.873 50.8909 134.391 51.2904 133.804 51.5793C133.226 51.8598 132.569 52 131.834 52Z" fill="white"/>
<path d="M102.455 51.9871C101.317 51.9871 100.406 51.7237 99.7229 51.1968C99.0398 50.6698 98.6413 49.9177 98.5274 48.9404H99.8805C99.9594 49.5778 100.222 50.0622 100.669 50.3936C101.115 50.7251 101.72 50.8908 102.482 50.8908C103.121 50.8908 103.603 50.7761 103.927 50.5466C104.26 50.3171 104.426 49.9899 104.426 49.565C104.426 49.1826 104.316 48.8809 104.097 48.6599C103.879 48.4305 103.533 48.2435 103.06 48.099L101.418 47.5891C100.577 47.3256 99.9593 46.9942 99.5652 46.5947C99.1711 46.1953 98.9741 45.6896 98.9741 45.0777C98.9741 44.5593 99.1054 44.1131 99.3682 43.7392C99.6397 43.3653 100.016 43.0763 100.498 42.8723C100.988 42.6599 101.558 42.5536 102.206 42.5536C103.204 42.5536 104.001 42.8001 104.597 43.293C105.201 43.7775 105.547 44.4531 105.635 45.32H104.281C104.176 44.742 103.949 44.3214 103.598 44.0579C103.248 43.786 102.766 43.65 102.153 43.65C101.575 43.65 101.124 43.7605 100.8 43.9814C100.476 44.2024 100.314 44.5126 100.314 44.912C100.314 45.235 100.419 45.5069 100.629 45.7279C100.848 45.9404 101.207 46.1231 101.707 46.276L103.428 46.8115C104.224 47.0579 104.811 47.3936 105.188 47.8185C105.573 48.2435 105.766 48.7789 105.766 49.4248C105.766 50.2407 105.477 50.8738 104.899 51.3242C104.321 51.7662 103.506 51.9871 102.455 51.9871Z" fill="white"/>
<path d="M85.3373 51.9871C84.1988 51.9871 83.2879 51.7237 82.6048 51.1968C81.9217 50.6698 81.5232 49.9177 81.4093 48.9404H82.7625C82.8413 49.5778 83.104 50.0622 83.5507 50.3936C83.9973 50.7251 84.6016 50.8908 85.3636 50.8908C86.0029 50.8908 86.4846 50.7761 86.8086 50.5466C87.1414 50.3171 87.3079 49.9899 87.3079 49.565C87.3079 49.1826 87.1984 48.8809 86.9794 48.6599C86.7605 48.4305 86.4145 48.2435 85.9416 48.099L84.2995 47.5891C83.4587 47.3256 82.8413 46.9942 82.4472 46.5947C82.0531 46.1953 81.856 45.6896 81.856 45.0777C81.856 44.5593 81.9874 44.1131 82.2501 43.7392C82.5216 43.3653 82.8982 43.0763 83.3799 42.8723C83.8703 42.6599 84.4396 42.5536 85.0877 42.5536C86.0861 42.5536 86.8831 42.8001 87.4786 43.293C88.0829 43.7775 88.4289 44.4531 88.5165 45.32H87.1633C87.0582 44.742 86.8305 44.3214 86.4802 44.0579C86.1299 43.786 85.6482 43.65 85.0352 43.65C84.4571 43.65 84.0061 43.7605 83.682 43.9814C83.358 44.2024 83.196 44.5126 83.196 44.912C83.196 45.235 83.3011 45.5069 83.5113 45.7279C83.7302 45.9404 84.0893 46.1231 84.5885 46.276L86.3094 46.8115C87.1064 47.0579 87.6932 47.3936 88.0698 47.8185C88.4551 48.2435 88.6478 48.7789 88.6478 49.4248C88.6478 50.2407 88.3588 50.8738 87.7808 51.3242C87.2028 51.7662 86.3883 51.9871 85.3373 51.9871Z" fill="white"/>
<path d="M65.1497 51.8724V42.6939H66.5422V51.8724H65.1497ZM65.8328 51.8724V50.7633H71.7182V51.8724H65.8328ZM65.8328 47.6783V46.5693H71.2452V47.6783H65.8328ZM65.8328 43.8029V42.6939H71.5999V43.8029H65.8328Z" fill="white"/>
<path d="M46.6075 51.8724V42.6939H48.2234L53.2417 50.5466L52.9264 50.6104V42.6939H54.2664V51.8724H52.6505L47.6322 44.0197L47.9475 43.9559V51.8724H46.6075Z" fill="white"/>
<path d="M31.6938 51.8724V43.8029H28.5015V42.6939H36.2786V43.8029H33.0863V51.8724H31.6938Z" fill="white"/>
<path d="M16.7845 51.8724V42.6939H18.1771V51.8724H16.7845Z" fill="white"/>
<path d="M0 51.8724V42.6939H1.39252V51.8724H0ZM0.683123 48.0608V46.9517H5.88536V48.0608H0.683123ZM0.683123 43.8029V42.6939H6.24006V43.8029H0.683123Z" fill="white"/>
</svg>
