<svg width="284" height="51" viewBox="0 0 284 51" fill="none" xmlns="http://www.w3.org/2000/svg">
<path d="M163.178 22.6063H151.501V14.7214C151.501 12.4287 151.372 11.0027 151.113 10.4435C150.873 9.86563 150.327 9.57671 149.476 9.57671C148.515 9.57671 147.905 9.92155 147.646 10.6112C147.387 11.3009 147.258 12.7922 147.258 15.0849V36.1112C147.258 38.3108 147.387 39.7461 147.646 40.4172C147.905 41.0882 148.487 41.4237 149.393 41.4237C150.262 41.4237 150.826 41.0882 151.085 40.4172C151.362 39.7461 151.501 38.171 151.501 35.6918V30.0158H163.178V31.7774C163.178 36.4561 162.845 39.7741 162.179 41.7313C161.532 43.6885 160.081 45.4034 157.825 46.876C155.588 48.3486 152.823 49.0849 149.532 49.0849C146.111 49.0849 143.292 48.4605 141.073 47.2116C138.854 45.9627 137.384 44.2384 136.663 42.0389C135.942 39.8207 135.581 36.4934 135.581 32.057V18.8316C135.581 15.5696 135.692 13.1277 135.914 11.506C136.136 9.86563 136.792 8.29052 137.883 6.78066C138.993 5.27079 140.518 4.08713 142.459 3.22967C144.419 2.35358 146.666 1.91553 149.199 1.91553C152.638 1.91553 155.477 2.58658 157.714 3.92868C159.951 5.27079 161.421 6.94842 162.124 8.96158C162.826 10.9561 163.178 14.069 163.178 18.3004V22.6063Z" fill="white"/>
<path d="M114.343 2.86621V48.1343H104.108L98.0342 27.5554V48.1343H88.2714V2.86621H98.0342L104.58 23.2494V2.86621H114.343Z" fill="white"/>
<path d="M80.4811 29.3728C80.4811 33.921 80.3702 37.1458 80.1483 39.0471C79.9449 40.9298 79.2793 42.654 78.1514 44.2198C77.042 45.7856 75.535 46.9879 73.6305 47.8267C71.726 48.6655 69.5072 49.0849 66.9741 49.0849C64.5703 49.0849 62.407 48.6935 60.484 47.9106C58.5795 47.109 57.0448 45.9161 55.8799 44.3316C54.7151 42.7472 54.0217 41.023 53.7998 39.1589C53.5779 37.2949 53.467 34.0328 53.467 29.3728V21.6277C53.467 17.0794 53.5687 13.864 53.7721 11.9813C53.9939 10.08 54.6596 8.34645 55.769 6.78066C56.8969 5.21487 58.4131 4.01257 60.3176 3.17375C62.2221 2.33494 64.4409 1.91553 66.9741 1.91553C69.3778 1.91553 71.5319 2.31629 73.4364 3.11783C75.3593 3.90072 76.9033 5.08439 78.0682 6.66881C79.233 8.25324 79.9264 9.97748 80.1483 11.8415C80.3702 13.7055 80.4811 16.9676 80.4811 21.6277V29.3728ZM68.8046 14.4978C68.8046 12.3914 68.6844 11.0493 68.444 10.4714C68.2221 9.87495 67.7506 9.57671 67.0295 9.57671C66.4193 9.57671 65.9478 9.81903 65.615 10.3037C65.3007 10.7697 65.1435 12.1677 65.1435 14.4978V35.6359C65.1435 38.2642 65.2452 39.8859 65.4486 40.501C65.6705 41.1162 66.1697 41.4237 66.9463 41.4237C67.7414 41.4237 68.2499 41.0696 68.4718 40.3612C68.6936 39.6529 68.8046 37.966 68.8046 35.3004V14.4978Z" fill="white"/>
<path d="M19.7719 2.86621H28.037C33.5471 2.86621 37.2728 3.08057 39.2143 3.5093C41.1743 3.93803 42.7644 5.03781 43.9848 6.80864C45.2236 8.56084 45.843 11.3662 45.843 15.2248C45.843 18.7478 45.4085 21.1151 44.5395 22.3267C43.6704 23.5384 41.9601 24.2653 39.4084 24.5077C41.7197 25.0855 43.2729 25.8591 44.068 26.8284C44.863 27.7977 45.353 28.6924 45.5379 29.5126C45.7413 30.3141 45.843 32.5416 45.843 36.1952V48.1343H34.9985V33.0915C34.9985 30.6683 34.8044 29.1677 34.4161 28.5899C34.0463 28.012 33.0571 27.7231 31.4484 27.7231V48.1343H19.7719V2.86621ZM31.4484 10.6113V20.6771C32.7612 20.6771 33.6765 20.5 34.1942 20.1458C34.7304 19.773 34.9985 18.5893 34.9985 16.5948V14.1063C34.9985 12.671 34.7397 11.7297 34.222 11.2823C33.7227 10.835 32.7982 10.6113 31.4484 10.6113Z" fill="white"/>
<path d="M11.6765 2.86621V48.1343H0V2.86621H11.6765Z" fill="white"/>
<path fill-rule="evenodd" clip-rule="evenodd" d="M194.349 0C207.897 4.28384e-05 218.88 11.4168 218.88 25.5001C218.88 39.5833 207.897 51 194.349 51C190.872 51 187.565 50.248 184.568 48.8921C190.082 50.7538 196.403 50.5557 202.314 47.8544C212.778 43.0718 218.55 31.9984 216.805 21.4772C215.242 32.3483 212.116 38.3646 200.538 43.6563C191.727 47.6833 182.413 47.1157 176.404 42.8867C172.523 38.5599 170.072 32.8279 169.837 26.5051C170.733 20.0934 174.887 13.7487 181.723 8.24097C193.557 -1.29332 208.378 4.74593 215.279 16.2615C210.242 4.50667 196.353 -0.521127 184.201 5.03286C176.747 8.43977 171.674 15.039 170.003 22.3569C171.493 9.75654 181.825 0 194.349 0ZM199.573 11.5896C199.198 11.5896 198.838 11.6543 198.504 11.7732C198.423 11.7699 198.341 11.779 198.26 11.8025L193.063 13.3048C192.673 13.4178 192.437 13.8189 192.527 14.2187L193.424 18.2005C193.527 18.6567 194.005 18.9171 194.44 18.7532L197.077 17.7591C197.117 17.794 197.158 17.8284 197.199 17.8617V24.7563C195.47 23.8836 193.637 23.6863 192.17 24.0885C190.726 22.7136 188.779 21.8704 186.636 21.8703C182.185 21.8704 178.576 25.5086 178.576 29.9966C178.576 34.4847 182.185 38.123 186.636 38.1231C187.436 38.123 188.208 38.0056 188.937 37.7871L201.375 36.5456C201.578 36.5692 201.785 36.5818 201.994 36.5818C204.949 36.5818 207.345 34.1667 207.345 31.1876C207.345 30.7783 207.299 30.3797 207.213 29.9965H207.345L203.059 15.2208C203.1 14.5043 202.928 13.8017 202.583 13.1963C202.676 13.4884 202.719 13.7859 202.704 14.0792C202.367 12.6514 201.093 11.5896 199.573 11.5896ZM191.945 12.7117C191.833 12.8564 191.74 13.0148 191.667 13.1827C191.747 13.0174 191.84 12.8598 191.945 12.7117ZM195.866 10.9042C195.891 10.8993 195.916 10.8949 195.941 10.891L195.878 10.8693L195.866 10.9042Z" fill="#A40000"/>
<path d="M225.534 2.86572H233.799C239.309 2.86572 243.035 3.08009 244.976 3.50881C246.936 3.93754 248.527 5.03732 249.747 6.80816C250.986 8.56035 251.605 11.3657 251.605 15.2243C251.605 18.7473 251.171 21.1146 250.302 22.3262C249.433 23.5379 247.722 24.2648 245.171 24.5072C247.482 25.085 249.035 25.8586 249.83 26.8279C250.625 27.7972 251.115 28.6919 251.3 29.5121C251.503 30.3136 251.605 32.5412 251.605 36.1947V48.1338H240.761V33.091C240.761 30.6678 240.567 29.1672 240.178 28.5894C239.808 28.0115 238.819 27.7226 237.211 27.7226V48.1338H225.534V2.86572ZM237.211 10.6108V20.6766C238.523 20.6766 239.439 20.4995 239.956 20.1453C240.493 19.7725 240.761 18.5889 240.761 16.5943V14.1059C240.761 12.6705 240.502 11.7292 239.984 11.2818C239.485 10.8345 238.56 10.6108 237.211 10.6108Z" fill="white"/>
<path d="M258.262 48.2575C258.28 48.2771 258.298 48.2964 258.317 48.3156H258.262V48.2575Z" fill="white"/>
<path d="M272.229 48.3156H270.166V44.9448L272.229 38.5069V48.3156Z" fill="white"/>
<path d="M275.933 48.3156H274.921V41.4945L275.933 48.3156Z" fill="white"/>
<path d="M279.04 48.3156H278.078L279.04 41.3155V48.3156Z" fill="white"/>
<path d="M284 48.3156H281.733V43.7441L284 48.3156Z" fill="white"/>
<path d="M262.927 48.3156H262.857C262.872 48.2941 262.887 48.2722 262.902 48.25L262.927 48.3156Z" fill="white"/>
<path d="M278.675 12.0789H270.243V20.1315H279.34L276.9 29.0789H270.243V37.5501H269.549C269.127 39.3541 268.826 40.874 268.646 42.1101C268.589 41.3274 268.327 39.8074 267.859 37.5501H264.872L267.156 44.9448V48.3156H265.331V43.0079H261.391V44.7206H262.07V46.0572C262.07 46.5816 262.025 46.9343 261.934 47.1153C261.849 47.2963 261.684 47.3868 261.439 47.3868C261.215 47.3868 261.066 47.3078 260.991 47.15C260.916 46.9876 260.879 46.6534 260.879 46.1477V40.7385C260.879 40.163 260.916 39.8057 260.991 39.6664C261.066 39.5272 261.207 39.4576 261.415 39.4576C261.654 39.4576 261.806 39.5389 261.87 39.7013C261.934 39.8638 261.966 40.2676 261.966 40.9126V41.9359H265.331V41.4486C265.331 40.5251 265.233 39.8219 265.036 39.3393C264.839 38.852 264.415 38.4319 263.765 38.0792C263.115 37.7265 262.297 37.5501 261.311 37.5501C260.309 37.5501 259.491 37.7544 258.857 38.1628C258.625 38.3119 258.426 38.4666 258.262 38.6271V2.68408H284L278.675 12.0789Z" fill="white"/>
<path d="M277.014 42.9619L276.589 40.0126C276.46 39.0806 276.337 38.2694 276.221 37.5788H277.712L277.014 42.9619Z" fill="white"/>
</svg>
